<svg xmlns="http://www.w3.org/2000/svg" width="348" height="284" viewBox="0 0 348 284">
<g>
<path d="M 140.67 232.33 C140.30,231.97 140.00,229.28 140.00,226.37 L 140.00 221.07 L 194.75 220.78 L 249.50 220.50 L 254.79 218.11 C260.90,215.35 266.17,209.71 267.84,204.14 C269.62,198.18 269.41,160.68 267.56,157.13 C266.03,154.16 259.54,147.89 256.09,146.05 C254.54,145.22 254.00,143.97 254.01,141.21 C254.02,137.97 254.72,136.89 259.53,132.67 C268.51,124.79 269.00,123.20 269.00,101.72 C269.00,87.25 268.65,82.33 267.34,78.50 C265.26,72.38 258.89,65.88 253.38,64.23 C250.25,63.29 225.78,63.00 150.63,63.00 L 52.00 63.00 L 52.00 71.49 L 52.00 79.97 L 84.75 80.24 L 117.50 80.50 L 117.76 136.09 L 118.02 191.68 L 122.11 194.97 C129.19,200.66 130.90,208.81 126.75,217.03 C121.10,228.21 107.65,229.92 98.36,220.63 C89.65,211.91 92.01,199.22 103.62,192.39 C105.42,191.33 105.50,189.21 105.50,141.89 L 105.50 92.50 L 73.00 92.00 L 40.50 91.50 L 39.89 80.00 C39.15,65.86 39.68,52.92 41.06,51.54 C41.77,50.83 76.28,50.50 147.85,50.50 L 253.60 50.50 L 261.23 54.27 C270.02,58.61 275.48,64.56 279.18,73.83 C281.28,79.10 281.45,81.03 281.47,101.00 C281.50,122.24 281.47,122.57 278.85,128.00 C277.39,131.02 274.77,134.97 273.03,136.76 L 269.87 140.03 L 274.41 145.22 C281.40,153.21 282.00,156.00 282.00,180.48 C282.00,199.01 281.75,202.34 279.99,207.56 C277.45,215.06 271.83,222.57 265.62,226.74 C256.32,232.99 256.25,233.00 195.99,233.00 C165.93,233.00 141.03,232.70 140.67,232.33 ZM 140.25 205.34 C139.27,204.94 139.00,191.40 139.00,142.37 L 139.00 79.91 L 188.75 80.21 C232.89,80.47 238.84,80.69 241.50,82.16 C244.88,84.03 249.20,88.42 250.88,91.68 C252.32,94.49 252.36,118.91 250.94,122.68 C249.50,126.48 245.35,130.73 240.50,133.34 C236.61,135.44 235.35,135.51 193.75,135.80 L 151.00 136.10 L 151.00 142.55 L 151.00 149.00 L 192.25 149.01 C216.80,149.01 234.96,149.42 237.12,150.02 C242.82,151.60 247.31,155.14 249.75,159.97 C251.74,163.92 252.00,165.92 252.00,177.59 C252.00,194.91 250.44,198.60 241.00,203.63 C237.74,205.37 234.25,205.51 189.50,205.68 C163.10,205.77 140.94,205.62 140.25,205.34 ZM 237.56 191.58 C239.25,190.35 239.54,188.67 239.84,178.62 C240.16,167.39 240.10,167.01 237.63,164.54 L 235.09 162.00 L 193.05 162.00 L 151.00 162.00 L 151.00 177.50 L 151.00 193.00 L 193.31 193.00 C228.24,193.00 235.96,192.75 237.56,191.58 ZM 234.73 122.43 C238.50,121.65 240.00,117.13 240.00,106.55 C240.00,96.25 238.89,93.74 233.78,92.50 C232.52,92.19 213.50,92.07 191.50,92.22 L 151.50 92.50 L 151.22 106.95 C151.07,114.90 151.14,121.92 151.38,122.55 C151.70,123.38 162.58,123.58 192.16,123.29 C214.35,123.08 233.50,122.69 234.73,122.43 Z" fill="rgba(0,0,0,1)"/>
</g>
</svg>